<svg width="418" height="271" viewBox="0 0 418 271" fill="none" xmlns="http://www.w3.org/2000/svg">
<path d="M32.8796 75.0272C32.8796 59.7211 30.3008 52.0681 25.1432 52.0681C21.9577 52.0681 18.4308 54.528 14.5626 59.4478C10.7703 64.0943 7.73638 68.8774 5.46097 73.7973L2.16164 80.767L5.23343 22.1392C8.19146 16.3994 11.7563 11.3429 15.9278 6.96975C20.0994 2.32325 23.778 0 26.9636 0C33.4105 0 38.5681 6.01311 42.4363 18.0393C46.3804 29.7922 48.3524 45.5083 48.3524 65.1876C48.3524 91.6999 44.4842 119.306 36.7478 148.005L16.9518 221.802L52.4481 214.422L50.514 268.95L26.8498 265.26L0 268.13L1.82032 225.082L25.7121 125.865C30.4904 106.459 32.8796 89.5134 32.8796 75.0272Z" fill="#BF3030" fill-opacity="0.58"/>
<path d="M90.9922 0.40998C98.8045 0.40998 105.062 11.6162 109.764 34.0287C114.543 56.1679 116.932 85.5502 116.932 122.175C116.932 168.367 114.05 204.719 108.285 231.231C102.597 257.744 94.7466 271 84.7349 271C77.0743 271 70.817 259.794 65.9628 237.381C61.1844 214.695 58.7952 185.176 58.7952 148.825C58.7952 105.366 61.7912 69.8341 67.7831 42.2284C73.8508 14.3495 81.5872 0.40998 90.9922 0.40998ZM88.3755 230.821C93.2297 230.821 96.6049 224.125 98.5011 210.732C100.473 197.339 101.459 173.56 101.459 139.395C101.459 105.229 100.473 81.3137 98.5011 67.6475C96.5291 53.708 93.078 46.7383 88.148 46.7383C83.2179 46.7383 79.6531 53.298 77.4536 66.4175C75.3299 79.2637 74.268 101.813 74.268 134.065C74.268 166.044 75.4057 190.233 77.6811 206.632C79.9565 222.758 83.5213 230.821 88.3755 230.821Z" fill="#BF3030" fill-opacity="0.58"/>
<path d="M155.76 75.0272C155.76 59.7211 153.182 52.0681 148.024 52.0681C144.838 52.0681 141.312 54.528 137.443 59.4478C133.651 64.0943 130.617 68.8774 128.342 73.7973L125.042 80.767L128.114 22.1392C131.072 16.3994 134.637 11.3429 138.809 6.96975C142.98 2.32325 146.659 0 149.844 0C156.291 0 161.449 6.01311 165.317 18.0393C169.261 29.7922 171.233 45.5083 171.233 65.1876C171.233 91.6999 167.365 119.306 159.629 148.005L139.833 221.802L175.329 214.422L173.395 268.95L149.731 265.26L122.881 268.13L124.701 225.082L148.593 125.865C153.371 106.459 155.76 89.5134 155.76 75.0272Z" fill="#BF3030" fill-opacity="0.58"/>
<path d="M213.873 0.40998C221.685 0.40998 227.943 11.6162 232.645 34.0287C237.423 56.1679 239.813 85.5502 239.813 122.175C239.813 168.367 236.93 204.719 231.166 231.231C225.478 257.744 217.627 271 207.616 271C199.955 271 193.698 259.794 188.844 237.381C184.065 214.695 181.676 185.176 181.676 148.825C181.676 105.366 184.672 69.8341 190.664 42.2284C196.732 14.3495 204.468 0.40998 213.873 0.40998ZM211.256 230.821C216.11 230.821 219.486 224.125 221.382 210.732C223.354 197.339 224.34 173.56 224.34 139.395C224.34 105.229 223.354 81.3137 221.382 67.6475C219.41 53.708 215.959 46.7383 211.029 46.7383C206.099 46.7383 202.534 53.298 200.334 66.4175C198.211 79.2637 197.149 101.813 197.149 134.065C197.149 166.044 198.286 190.233 200.562 206.632C202.837 222.758 206.402 230.821 211.256 230.821Z" fill="#BF3030" fill-opacity="0.58"/>
<path d="M263.202 186.953L262.292 149.644L289.142 132.425L290.052 169.734L263.202 186.953Z" fill="#BF3030" fill-opacity="0.58"/>
<path d="M344.415 75.0272C344.415 59.7211 341.836 52.0681 336.678 52.0681C333.493 52.0681 329.966 54.528 326.098 59.4478C322.305 64.0943 319.271 68.8774 316.996 73.7973L313.697 80.767L316.768 22.1392C319.726 16.3994 323.291 11.3429 327.463 6.96975C331.634 2.32325 335.313 0 338.499 0C344.946 0 350.103 6.01311 353.971 18.0393C357.915 29.7922 359.887 45.5083 359.887 65.1876C359.887 91.6999 356.019 119.306 348.283 148.005L328.487 221.802L363.983 214.422L362.049 268.95L338.385 265.26L311.535 268.13L313.355 225.082L337.247 125.865C342.025 106.459 344.415 89.5134 344.415 75.0272Z" fill="#BF3030" fill-opacity="0.58"/>
<path d="M373.857 12.2996C380.228 4.09985 386.561 0 392.857 0C399.152 0 404.31 5.73979 408.33 17.2194C412.349 28.6989 414.359 43.1851 414.359 60.6778C414.359 74.3439 413.373 86.3701 411.401 96.7564C409.429 106.869 406.623 114.522 402.982 119.716C408.292 126.822 412.122 135.705 414.473 146.365C416.824 156.751 418 170.007 418 186.133C418 210.732 415.345 231.095 410.036 247.221C404.803 263.074 398.128 271 390.013 271C386.144 271 382.352 269.223 378.635 265.67C374.995 261.844 372.302 258.017 370.558 254.191L367.941 248.451L372.719 198.843C373.402 201.029 374.312 203.762 375.45 207.042C376.588 210.322 378.749 214.832 381.935 220.572C385.196 226.038 388.458 228.772 391.719 228.772C394.98 228.772 397.825 225.628 400.252 219.342C402.679 212.782 403.893 203.626 403.893 191.873C403.893 180.12 402.451 170.417 399.569 162.764C396.763 155.111 392.857 151.284 387.851 151.284H378.067L380.115 111.516H386.372C390.543 111.516 393.805 108.099 396.156 101.266C398.507 94.4332 399.683 85.6868 399.683 75.0272C399.683 64.3676 398.697 56.1679 396.725 50.4281C394.753 44.415 392.364 41.4085 389.557 41.4085C386.827 41.4085 383.983 43.1851 381.025 46.7383C378.142 50.0181 374.957 55.0746 371.468 61.9077L373.857 12.2996Z" fill="#BF3030" fill-opacity="0.58"/>
</svg>
